#!OML:ASF F:\VICON\USERDATA\INSTALL\rory3\rory3.ASF
:FULLY-SPECIFIED
:DEGREES
652
root 2.91075 16.7488 -0.0813522 15.4246 4.81207 11.2085
lowerback -7.47141 1.90146 0.87307
upperback -2.2425 2.6776 -7.1545
thorax 2.2507 1.36313 -7.75108
lowerneck -2.7694 14.6727 5.21203
upperneck 48.0682 24.424 -1.338
head 20.4503 10.6731 2.65109
rclavicle -1.86112e-014 1.98785e-015
rhumerus -36.9329 3.70198 -92.8757
rradius 42.4888
rwrist -39.0561
rhand -9.86798 -48.4109
rfingers 7.12502
rthumb 16.1108 -77.7612
lclavicle -1.86112e-014 1.98785e-015
lhumerus -27.8352 -20.068 82.3044
lradius 41.3477
lwrist 73.6779
lhand -39.3852 -12.4379
lfingers 7.12502
lthumb -12.3751 17.1758
rfemur -51.1362 23.9843 -6.801
rtibia 73.8513
rfoot 3.71239 10.1871
rtoes -40.986
lfemur -32.3733 -6.88086 -36.3036
ltibia 38.1951
lfoot -16.7733 10.6942
ltoes 5.51222
653
root 2.91105 16.7469 -0.0815693 15.4907 4.85486 11.2401
lowerback -7.57727 1.89889 0.861351
upperback -2.23459 2.67938 -7.17215
thorax 2.31852 1.36561 -7.76076
lowerneck -2.71425 14.648 5.25873
upperneck 47.9849 24.4023 -1.43609
head 20.4101 10.6687 2.58512
rclavicle 3.30976e-014 -2.90226e-014
rhumerus -36.919 3.61656 -92.8554
rradius 42.5612
rwrist -39.0624
rhand -10.326 -47.2933
rfingers 7.12502
rthumb 15.6697 -76.6788
lclavicle 3.30976e-014 -2.90226e-014
lhumerus -27.7993 -20.1228 82.2984
lradius 41.3386
lwrist 73.6845
lhand -39.0338 -12.6761
lfingers 7.12502
lthumb -12.0362 16.9578
rfemur -51.2 23.8857 -6.82196
rtibia 73.8721
rfoot 3.47461 10.3322
rtoes -41.9782
lfemur -32.4344 -6.95174 -36.3178
ltibia 38.1794
lfoot -16.7152 10.7151
ltoes 5.48011
654
root 2.90972 16.7462 -0.0853249 15.5102 4.8444 11.2068
lowerback -7.49929 1.90728 0.881092
upperback -2.26695 2.68467 -7.16176
thorax 2.24244 1.36617 -7.76255
lowerneck -2.68562 14.6448 5.26543
upperneck 47.9358 24.4004 -1.47032
head 20.3771 10.6704 2.56122
rclavicle -1.42876e-014 2.26615e-014
rhumerus -36.946 3.59985 -92.8371
rradius 42.6258
rwrist -39.1015
rhand -10.578 -46.7226
rfingers 7.12502
rthumb 15.427 -76.1269
lclavicle -1.42876e-014 2.26615e-014
lhumerus -27.7902 -20.172 82.3226
lradius 41.3398
lwrist 73.677
lhand -38.9843 -12.679
lfingers 7.12502
lthumb -11.9885 16.9577
rfemur -51.2662 23.8999 -6.79213
rtibia 73.8747
rfoot 3.73967 10.0744
rtoes -41.3633
lfemur -32.4863 -6.93859 -36.2768
ltibia 38.1633
lfoot -16.6654 10.7069
ltoes 5.28523
655
root 2.91046 16.7454 -0.0892737 15.4825 4.76598 11.2293
lowerback -7.34659 1.92267 0.853036
upperback -2.30465 2.70085 -7.17053
thorax 2.11953 1.37112 -7.75809
lowerneck -2.66269 14.6479 5.28736
upperneck 47.9194 24.4213 -1.51423
head 20.3777 10.679 2.53989
rclavicle 4.38817e-014 -8.66701e-014
rhumerus -36.9855 3.66617 -92.8472
rradius 42.6521
rwrist -39.1463
rhand -10.5075 -47.061
rfingers 7.12502
rthumb 15.4949 -76.4601
lclavicle 4.38817e-014 -8.66701e-014
lhumerus -27.812 -20.2091 82.3542
lradius 41.3102
lwrist 73.7173
lhand -39.2823 -12.3855
lfingers 7.12502
lthumb -12.2758 17.2342
rfemur -51.3236 23.9765 -6.87442
rtibia 73.8601
rfoot 3.8019 10.1473
rtoes -41.3124
lfemur -32.4809 -6.87437 -36.3312
ltibia 38.1431
lfoot -16.6172 10.7577
ltoes 4.96336
656
root 2.91802 16.7499 -0.0813074 15.485 4.82618 11.2032
lowerback -7.44828 1.91816 0.970181
upperback -2.29624 2.69004 -7.1739
thorax 2.18878 1.36766 -7.82882
lowerneck -2.53027 14.6468 5.31608
upperneck 47.7825 24.426 -1.61361
head 20.2758 10.6911 2.46579
rclavicle -2.36057e-015 1.98785e-015
rhumerus -36.9865 3.74082 -92.8573
rradius 42.6594
rwrist -39.2029
rhand -10.3676 -47.4374
rfingers 7.12502
rthumb 15.6296 -76.826
lclavicle -2.36057e-015 1.98785e-015
lhumerus -27.88 -20.1734 82.3705
lradius 41.3229
lwrist 73.7397
lhand -39.371 -12.2401
lfingers 7.12502
lthumb -12.3613 17.3744
rfemur -51.1922 23.9263 -6.82358
rtibia 73.8022
rfoot 3.6876 10.1847
rtoes -41.5272
lfemur -32.3888 -6.91947 -36.3289
ltibia 38.1146
lfoot -16.6721 10.7597
ltoes 5.02437
657
root 2.92302 16.7544 -0.0752625 15.4649 4.89789 11.1036
lowerback -7.53212 1.90084 1.12464
upperback -2.25928 2.65882 -7.14313
thorax 2.27483 1.35485 -7.88654
lowerneck -2.42819 14.6569 5.30423
upperneck 47.6267 24.4448 -1.70788
head 20.1601 10.702 2.40303
rclavicle -2.90474e-014 4.8901e-014
rhumerus -36.9236 3.83655 -92.8644
rradius 42.6361
rwrist -39.2217
rhand -10.3544 -47.4588
rfingers 7.12502
rthumb 15.6423 -76.8464
lclavicle -2.90474e-014 4.8901e-014
lhumerus -27.921 -20.0485 82.3542
lradius 41.3751
lwrist 73.6976
lhand -39.4095 -12.1844
lfingers 7.12502
lthumb -12.3985 17.4279
rfemur -51.0646 23.9371 -6.69046
rtibia 73.7387
rfoot 3.26159 10.5311
rtoes -42.7896
lfemur -32.3126 -6.93697 -36.2359
ltibia 38.0883
lfoot -16.7037 10.735
ltoes 5.24238
658
root 2.92354 16.753 -0.0777424 15.4585 4.86993 11.0366
lowerback -7.4864 1.90045 1.18221
upperback -2.26774 2.65156 -7.1221
thorax 2.24098 1.35037 -7.89918
lowerneck -2.54998 14.6605 5.20739
upperneck 47.8369 24.4283 -1.52067
head 20.2722 10.6816 2.52423
rclavicle 1.57785e-014 -2.0276e-014
rhumerus -36.9186 3.8662 -92.8736
rradius 42.6303
rwrist -39.1448
rhand -10.5309 -47.2757
rfingers 7.12502
rthumb 15.4723 -76.6765
lclavicle 1.57785e-014 -2.0276e-014
lhumerus -27.9311 -19.9912 82.3434
lradius 41.3915
lwrist 73.6406
lhand -39.8294 -11.8417
lfingers 7.12502
lthumb -12.8033 17.7457
rfemur -51.1181 23.9948 -6.67066
rtibia 73.7162
rfoot 2.94957 10.9389
rtoes -43.7961
lfemur -32.344 -6.89338 -36.1812
ltibia 38.0535
lfoot -16.6349 10.7844
ltoes 5.01045
659
root 2.92683 16.7521 -0.0753524 15.4975 4.87064 10.9887
lowerback -7.60374 1.91176 1.24432
upperback -2.24701 2.66582 -7.10786
thorax 2.33215 1.3601 -7.91558
lowerneck -2.77351 14.6529 5.05907
upperneck 48.148 24.3669 -1.20725
head 20.4372 10.6387 2.71977
rclavicle 7.52897e-014 -8.26944e-014
rhumerus -36.8728 3.83318 -92.8576
rradius 42.5942
rwrist -39.0462
rhand -10.8177 -47.1527
rfingers 7.12502
rthumb 15.1961 -76.5746
lclavicle 7.52897e-014 -8.26944e-014
lhumerus -27.8686 -20.0235 82.3456
lradius 41.3478
lwrist 73.6441
lhand -39.9382 -11.7591
lfingers 7.12502
lthumb -12.9083 17.8217
rfemur -51.1307 23.9632 -6.64582
rtibia 73.6879
rfoot 3.52344 10.5261
rtoes -42.2359
lfemur -32.3181 -6.92382 -36.1375
ltibia 37.929
lfoot -16.598 10.778
ltoes 4.92888
660
root 2.93003 16.7544 -0.0700097 15.4338 4.86444 11.2096
lowerback -7.66836 1.88019 1.01904
upperback -2.13398 2.64982 -7.14949
thorax 2.4759 1.35652 -7.82839
lowerneck -2.46215 14.5574 5.14369
upperneck 47.5637 24.2697 -1.6936
head 20.073 10.6128 2.39034
rclavicle 4.47266e-015 -8.34896e-015
rhumerus -36.7213 3.93582 -92.8675
rradius 42.4779
rwrist -38.9929
rhand -11.117 -46.6045
rfingers 7.12502
rthumb 14.9078 -76.0481
lclavicle 4.47266e-015 -8.34896e-015
lhumerus -27.7113 -20.057 82.3354
lradius 41.2444
lwrist 73.7386
lhand -39.4718 -12.1225
lfingers 7.12502
lthumb -12.4586 17.4862
rfemur -50.9241 23.9059 -6.81856
rtibia 73.6755
rfoot 3.91811 10.1526
rtoes -40.4745
lfemur -32.1633 -6.99285 -36.3715
ltibia 37.8922
lfoot -16.6906 10.6591
ltoes 5.96565
661
root 2.93268 16.7691 -0.057378 14.9176 5.44417 11.6439
lowerback -7.25758 1.64419 0.728061
upperback -1.90028 2.35844 -7.22059
thorax 2.43982 1.21268 -7.77306
lowerneck -2.38 14.5237 5.1328
upperneck 47.4202 24.217 -1.77841
head 19.9649 10.5952 2.32232
rclavicle 4.65405e-014 -7.87187e-014
rhumerus -36.7553 3.94269 -92.8854
rradius 42.4522
rwrist -38.8963
rhand -11.0906 -46.1003
rfingers 7.12502
rthumb 14.9332 -75.5419
lclavicle 4.65405e-014 -7.87187e-014
lhumerus -27.7203 -20.148 82.3501
lradius 41.2727
lwrist 73.8341
lhand -39.3754 -12.211
lfingers 7.12502
lthumb -12.3657 17.4032
rfemur -49.7429 23.7044 -6.69005
rtibia 73.6173
rfoot 3.29973 10.3452
rtoes -41.6784
lfemur -31.3113 -7.36159 -36.7549
ltibia 37.7929
lfoot -16.7908 10.4524
ltoes 6.99469
